<svg xmlns="http://www.w3.org/2000/svg" xmlns:xlink="http://www.w3.org/1999/xlink" viewBox="0 0 400 300" width="406" height="306" class="illustration styles_illustrationTablet__1DWOa"><defs><linearGradient id="linear-gradient" x1="241.39" y1="192.68" x2="199.32" y2="243.76" gradientUnits="userSpaceOnUse"><stop offset="0" stop-color="#1b1464"></stop><stop offset="1" stop-color="#fff"></stop></linearGradient><linearGradient id="linear-gradient-2" x1="342.38" y1="173.67" x2="330.82" y2="187.71" xlink:href="#linear-gradient"></linearGradient><linearGradient id="linear-gradient-3" x1="80.56" y1="169.72" x2="61.24" y2="192.77" xlink:href="#linear-gradient"></linearGradient></defs><title>PP</title><g style="isolation: isolate;"><g id="Layer_2" data-name="Layer 2"><path d="M195.37,281,22.87,179c-5.49-3.08-10.2-8.15-4.85-11.46L191.15,67.77c2.6-1.61,6.54-2.66,9.18-1.13L381.41,171.73c5.49,3.19,6.48,12.1,1,15.29L218.11,280.79A22.94,22.94,0,0,1,195.37,281Z" fill="#ff7dc1"></path><path d="M264.37,56.36c12.15,3.43,7.95,16.9,16.68,24.07,10.62,8.72,14.63-16,27.67-14.48,6.28.75,10.52,9.61,13.35,20V53.32l-64.81-36.7-.55,42.25A10.48,10.48,0,0,1,264.37,56.36Z" fill="#68e1fd"></path><path d="M322.07,122.68V85.9c-2.83-10.34-7.07-19.2-13.35-20-13-1.55-17,23.2-27.67,14.48-8.73-7.16-4.53-20.64-16.68-24.07a10.48,10.48,0,0,0-7.66,2.51l-.33,25.69Z" fill="#68e1fd"></path><path d="M322.07,122.68V85.9c-2.83-10.34-7.07-19.2-13.35-20-13-1.55-17,23.2-27.67,14.48-8.73-7.16-4.53-20.64-16.68-24.07a10.48,10.48,0,0,0-7.66,2.51l-.33,25.69Z" fill="#606060" opacity="0.36"></path><path d="M189.25,218,160,237.72l49.38,23,37.94-21.44,11.49-16.74C257.69,221.93,190.34,218.71,189.25,218Z" fill="url(#linear-gradient)" style="mix-blend-mode: multiply;"></path><path d="M223.85,151s-16.05-12.89-26.72-14.4-16.22,10-15.47,17.78,26.28,12,26.28,12" fill="#edbab9"></path><path d="M219.14,156.53c-2.08-1.93-31.15-11.87-40.76-6.06s-8.4,13.11-7.19,20.18,9.9,42.19,9.9,42.19,9.16,4.29,21.8,1l-2.69-28.31,36.31-19.83" fill="#c24327"></path><path d="M165.72,128.39V134l22.44,19.87,24.59-11.09S226.8,126.15,226.8,126s-1.09-3.33-1.09-3.33" fill="#fcb749"></path><polygon points="165.72 128.39 189.25 148.73 211.04 139.66 225.71 122.68 200.86 103.29 189.25 120.42 165.72 128.39" fill="#fff"></polygon><polygon points="189.25 120.42 211.04 139.66 225.71 122.68 200.86 103.29 189.25 120.42" fill="#eaeaea"></polygon><rect x="239.79" y="183.08" width="5.14" height="58.67" rx="1.27" ry="1.27" transform="translate(-17.67 22.03) rotate(-5.02)" fill="#68e1fd"></rect><rect x="222.3" y="181.72" width="5.14" height="58.67" rx="1.27" ry="1.27" transform="translate(37.54 -33.93) rotate(9.41)" fill="#68e1fd"></rect><rect x="247.52" y="165.15" width="5.14" height="58.67" rx="1.27" ry="1.27" transform="translate(-47.18 84.95) rotate(-17.64)" fill="#68e1fd"></rect><rect x="239.79" y="183.08" width="5.14" height="58.67" rx="1.27" ry="1.27" transform="translate(-17.67 22.03) rotate(-5.02)" fill="#606060" opacity="0.36"></rect><rect x="222.3" y="181.72" width="5.14" height="58.67" rx="1.27" ry="1.27" transform="translate(37.54 -33.93) rotate(9.41)" fill="#606060" opacity="0.36"></rect><rect x="247.52" y="165.15" width="5.14" height="58.67" rx="1.27" ry="1.27" transform="translate(-47.18 84.95) rotate(-17.64)" fill="#606060" opacity="0.36"></rect><path d="M189.25,218c.84-.1,3.46-.19,4.43-.19,3,2.31,7,3.15,10.4,3.52,4.25.46,9.14-.14,12.87-2.92l.77,6.9c.44,5.3-6.51,4.25-9.12,4.13a77.62,77.62,0,0,1-15.15-2.32c-2-.49-8.3-1.49-8.67-4.74S185.47,218.48,189.25,218Z" fill="#c24327"></path><path d="M201.26,199s4,18.68,2.15,18.61-14.15.41-14.15.41,2.84,7.1,12,8.43,15.7-8,15.7-8l-3.63-23.31" fill="#ffc4b0"></path><path d="M218.48,190.38l2.72,14.87s-4.27,4.39-18.66,3.87,0-26.27,0-26.27" fill="#a53421"></path><path d="M174.3,229.17c.84-.1,3.46-.19,4.43-.19,3,2.31,7,3.15,10.4,3.52,4.25.46,9.14-.14,12.87-2.92l.77,6.9c.44,5.3-6.51,4.25-9.12,4.13a77.62,77.62,0,0,1-15.15-2.32c-2-.49-8.3-1.49-8.67-4.74S170.52,229.6,174.3,229.17Z" fill="#c24327"></path><path d="M186.3,210.15s4,18.68,2.15,18.61-14.15.41-14.15.41,2.84,7.1,12,8.43,15.7-8,15.7-8l-3.63-23.31" fill="#ffc4b0"></path><path d="M251.77,131.26s.57-21.65-9.28-22S219.74,116,219,127.44s-2.64,32.87-2.64,36.89,7.22,18.85,7.22,18.85" fill="#4be2c5"></path><path d="M187.85,131.62l-.17-.1a1.41,1.41,0,0,1,1.42-2.44l.34.2a1.43,1.43,0,0,1,2.1-1.27c1.62.8,3.24,1.61,4.83,2.46l-.61-.75c-.93-1.16.24-3.14,1.71-2.22q2.9,1.82,5.71,3.78a1.49,1.49,0,0,1,.3,2.14l.29.23a1.53,1.53,0,0,1,.41,1.94,1.6,1.6,0,0,1-.15,1.3c.88.65.37,1.95-.57,2.31l-.12.13,1.67.58c1.7.6,1,3.32-.75,2.72l-8.57-3c-2.2-.77-4.44-1.46-6-3.26a1.38,1.38,0,0,1-.23-1.54,9,9,0,0,1-1.73-1.18A1.26,1.26,0,0,1,187.85,131.62Z" fill="#ffc4b0"></path><path d="M222.87,137s-15.4-6.26-20-7.61c0,0-4.75,3.34-3.43,12.1,0,0,13.88,14.19,22.49,18.46" fill="#4be2c5"></path><path d="M234.85,106.17a1.46,1.46,0,0,1,.11-1.87,5.76,5.76,0,0,1,2.41-1.92,2.14,2.14,0,0,1,2.72,1.54c.58,2.21-2.12,4.69-4.26,4a1.44,1.44,0,0,1-1-1.74Z" fill="#ff666d"></path><path d="M260.65,175.79a32.56,32.56,0,0,0,1.54-4.61c3-12,5.06-56.86-15.13-55-22.15,2-14.66,57.46-37.11,55.76s-31.64,4.14-22.46,12.83C205.83,202.12,249.39,202.51,260.65,175.79Z" fill="#68e1fd"></path><path d="M231.38,89.63s-4,16.72,1.64,20.21c4,2.46,10.63.87,12.88-5.67S237.33,85.49,231.38,89.63Z" fill="#ffc4b0"></path><path d="M239.61,103s-6.9-4.78-8.5-13,17.11-7.13,20.72.67c2.82,6.1-.09,18.71-10.45,19.05Z" fill="#c24327"></path><path d="M246.68,105c1.36.94,36.58,30.51,21,43.08-13,10.49-22.93-36.87-23.29-40.54" fill="#c24327"></path><path d="M237.37,101.54s1-3.28,2.8-1.68c1.46,1.31.45,5.78-.81,5.3" fill="#ffc4b0"></path><path d="M337.51,176.88c-5,3.14-10.15,6.47-15.44,9.29l13.41,7,9.59-10.61A28.31,28.31,0,0,1,337.51,176.88Z" fill="url(#linear-gradient-2)" style="mix-blend-mode: multiply;"></path><path d="M351.57,160.37s-.68,23.84-10.86,24.4-10.86-24.4-10.86-24.4" fill="#68e1fd"></path><path d="M351.57,160.37s-.68,23.84-10.86,24.4-10.86-24.4-10.86-24.4" fill="#c24327"></path><ellipse cx="340.7" cy="160.37" rx="10.86" ry="4.51" fill="#311e69"></ellipse><path d="M343.66,163.44a97.41,97.41,0,0,1,10.18-27.49c.39-.71,1.7-.1,1.31.61a96.37,96.37,0,0,0-10,27.2C345,164.53,343.51,164.21,343.66,163.44Z" fill="#311e69"></path><path d="M337.45,165q1.12-17.3,3.88-34.51c.12-.76,1.64-.77,1.52,0q-2.75,17.16-3.87,34.44C338.46,164.9,338,164.92,337.45,165Z" fill="#311e69"></path><path d="M357.2,133.71a9.94,9.94,0,0,1,5.36.34c1.22.43,3.75,1.66,3.25,3s-3.56,1.12-4.78.82a6.56,6.56,0,0,1-4.2-3.12.58.58,0,0,1-.05-.14A.56.56,0,0,1,357.2,133.71Z" fill="#c3ea75"></path><path d="M354.82,133a.71.71,0,0,0,1,.26c1.66-1,3.74-1.59,4.91-3,.82-1,1.16-2.65-.33-3.38a4,4,0,0,0-4.26.8c-1.36,1.26-1.49,3.09-1.81,4.65A.63.63,0,0,0,354.82,133Zm3.14-5,0,.15a5.13,5.13,0,0,0-1.26,1.21A3.45,3.45,0,0,1,358,128Z" fill="#c3ea75"></path><path d="M350.4,129.79c2.45-.88,2.87,2.48,2.93,3.61a.55.55,0,0,1-.5.56.9.9,0,0,1-1.06,0c-.82-.59-1.87-1.15-2.13-2.07C349.45,131.21,349.45,130.13,350.4,129.79Z" fill="#c3ea75"></path><path d="M341.11,128.22a.9.9,0,0,0,1.18.32,1,1,0,0,0,.39,0c1.89-.23,2.85-2.64,3.19-3.9s.71-3.33-1.19-4a3.3,3.3,0,0,0-4.08,1.93A7.53,7.53,0,0,0,341.11,128.22Zm1-1.71a3.18,3.18,0,0,1,0-1,4.69,4.69,0,0,0,.05.66v0C342.21,126.33,342.18,126.42,342.14,126.51Z" fill="#c3ea75"></path><path d="M331.16,128.55c-.07,1.55,1.86,2.18,3.46,2.43,1,.15,4.53.86,4.6-.53a.54.54,0,0,0,.13-.68c-.79-1.48-2.65-2.13-4.48-2.52C333.36,126.92,331.23,126.86,331.16,128.55Zm1.48-.07a2,2,0,0,0,.2.25.6.6,0,0,0-.1.28A.39.39,0,0,1,332.65,128.48Z" fill="#c3ea75"></path><path d="M344.78,129.75a.82.82,0,0,0,.89.42,6.31,6.31,0,0,0,2.88-1,1.41,1.41,0,0,0,.44-2c-1.17-1.41-3.86,1-4.56,1.73C344.1,129.28,344.37,129.63,344.78,129.75Zm2.13-1.15-.13,0,.77-.41h0A1.82,1.82,0,0,1,346.91,128.6Z" fill="#c3ea75"></path><path d="M61.11,165.44,31.64,181.89s32,20.55,40.75,25.75l31.11-19.06" fill="url(#linear-gradient-3)" style="mix-blend-mode: multiply;"></path><polyline points="82.78 107.28 89.17 110.69 71.72 127.12 56.34 131.96 51.22 125.01" fill="#ffe8bc"></polyline><polyline points="58.69 128.46 52.76 125.08 82.78 107.28 82.07 106.88 51.22 125.01 51.22 171.31 57.95 175.14 60.52 172.47" fill="#68e1fd"></polyline><polyline points="58.69 128.46 52.76 125.08 82.78 107.28 82.07 106.88 51.22 125.01 51.22 171.31 57.95 175.14 60.52 172.47" fill="#1371a5" opacity="0.42"></polyline><polygon points="89.17 110.69 57.95 128.89 57.95 175.14 89.66 156.19 89.17 110.69" fill="#68e1fd"></polygon><polygon points="59.13 125.86 61.03 127.06 61.03 136.93 62.25 135.37 63.1 136.34 63.1 125.89 61.31 124.61 59.13 125.86" fill="#e85858"></polygon><path d="M62.32,175.52c-.15,0-1.5-.54-.36-1.41a23.35,23.35,0,0,1,2.36-1.61" fill="#e27825"></path><path d="M62.32,168.37s1.13,4.2,0,6.44l15.43,9.07L93,192.71v-6.52" fill="#ffe8bc"></path><path d="M61.81,167.72q.05.44.11.87L93,186.19v6.52L61.94,174.59c0,.26,0,.52,0,.77L94.2,194v-8.9Z" fill="#e27825"></path><path d="M62,167.84,94,186.19l45-26.41-31.37-18a3.09,3.09,0,0,0-3.12,0L62,167A.46.46,0,0,0,62,167.84Z" fill="#fdba45"></path><path d="M94.2,194s45-26.48,44.82-26.6,0-7.66,0-7.66L94,186.19Z" fill="#e27825"></path><path d="M62,167a1.14,1.14,0,0,0-.47.81c-.05.55.53.81.73.93" fill="#fdba45"></path><path d="M59.11,163c-.15,0-1.5-.54-.36-1.41A23.35,23.35,0,0,1,61.11,160" fill="#9a433a"></path><path d="M59.11,155.87s1.13,4.2,0,6.44l15.43,9.07L89.8,180.2v-6.52" fill="#ffe8bc"></path><path d="M58.6,155.21q.05.44.11.87L89.8,173.68v6.52L58.74,162.09c0,.26,0,.52,0,.77L91,181.53v-8.9Z" fill="#9a433a"></path><path d="M58.78,155.33l32.06,18.35,45-26.41-31.37-18a3.09,3.09,0,0,0-3.12,0L58.77,154.53A.46.46,0,0,0,58.78,155.33Z" fill="#f26250"></path><path d="M91,181.53s45-26.48,44.82-26.6,0-7.66,0-7.66l-45,26.41Z" fill="#9a433a"></path><path d="M58.77,154.53a1.14,1.14,0,0,0-.47.81c-.05.55.53.81.73.93" fill="#f26250"></path></g></g></svg>